<?xml version="1.0" encoding="iso-8859-1"?>
<!-- Generator: Adobe Illustrator 16.0.0, SVG Export Plug-In . SVG Version: 6.00 Build 0)  -->
<!DOCTYPE svg PUBLIC "-//W3C//DTD SVG 1.1//EN" "http://www.w3.org/Graphics/SVG/1.1/DTD/svg11.dtd">
<svg version="1.1" id="Capa_1" xmlns="http://www.w3.org/2000/svg" xmlns:xlink="http://www.w3.org/1999/xlink" x="0px" y="0px"
	 width="44.301px" height="44.302px" viewBox="0 0 44.301 44.302" style="enable-background:new 0 0 44.301 44.302;"
	 xml:space="preserve">
<g>
	<circle cx="22" cy="22" r="20" fill="red"/>
	<path d="M22.15,0C9.918,0,0,9.917,0,22.15c0,12.234,9.918,22.151,22.15,22.151c12.233,0,22.151-9.917,22.151-22.151
		C44.301,9.917,34.384,0,22.15,0z M22.063,34.794c-1.649,0-2.771-1.214-2.771-2.833c0-1.65,1.151-2.833,2.771-2.833
		c1.681,0,2.771,1.183,2.802,2.833C24.864,33.58,23.744,34.794,22.063,34.794z M26.483,21.246c-1.395,1.543-1.929,3.014-1.929,4.708
		v0.119c0,0.813-0.659,1.474-1.474,1.474h-2.075c-0.803,0-1.457-0.644-1.473-1.444l-0.01-0.512
		c-0.113-1.921,0.527-3.849,2.222-5.883c1.205-1.431,2.185-2.621,2.185-3.902c0-1.318-0.865-2.176-2.749-2.251
		c-0.742,0-1.576,0.163-2.336,0.436c-0.38,0.137-0.795,0.113-1.155-0.065c-0.359-0.179-0.631-0.496-0.752-0.88l-0.392-1.253
		c-0.229-0.733,0.144-1.517,0.856-1.804c1.327-0.535,3.079-0.947,5.059-0.947c4.972,0,7.229,2.75,7.229,5.877
		C29.69,17.78,27.917,19.664,26.483,21.246z" fill="#ff8b5d"/>


</g>
<g>
</g>
<g>
</g>
<g>
</g>
<g>
</g>
<g>
</g>
<g>
</g>
<g>
</g>
<g>
</g>
<g>
</g>
<g>
</g>
<g>
</g>
<g>
</g>
<g>
</g>
<g>
</g>
<g>
</g>
</svg>
