<svg id="Component_50_1" data-name="Component 50 – 1" xmlns="http://www.w3.org/2000/svg" width="724" height="724" viewBox="0 0 724 724">
  <circle id="Ellipse_8" cx="362" cy="362" r="362" fill="#c8c6ae"/>
  <rect id="Rectangle_92" width="159" height="190" rx="29" transform="translate(72 267)" fill="#51806c"/>
  <path id="Polygon_5" d="M265.779,16.049a19,19,0,0,1,28.441,0L532,284.4c10.863,12.26,2.159,31.6-14.221,31.6H42.221C25.841,316,17.137,296.659,28,284.4Z" transform="translate(72 642) rotate(-90)" fill="#51806c"/>
  <path id="Path_44" d="M1653.921,9608.125c203.63,195.844,0,375,0,375" transform="translate(-1234 -9433.623)" fill="none" stroke="#51806c" stroke-linecap="round" stroke-width="30"/>
  <path id="Path_45" d="M1653.921,9608.125c252.713,243.049,0,465.386,0,465.386" transform="translate(-1199.656 -9478.817)" fill="none" stroke="#51806c" stroke-linecap="round" stroke-width="30"/>
  <path id="Path_46" d="M1653.921,9608.125c308.208,296.422,0,567.582,0,567.582" transform="translate(-1165.83 -9529.916)" fill="none" stroke="#51806c" stroke-linecap="round" stroke-width="30"/>
</svg>
